<svg xmlns="http://www.w3.org/2000/svg" viewBox="0 0 102 38">
  <g aria-label="lateflip" fill="#007fff">
    <path d="M6.617 5H3v24.052h3.617zM23.468 29.052V12.324H11v3.37h8.894V18.4H11v10.653zm-3.574-3.37h-5.277v-3.954h5.277zM36.957 29.052v-4.244H34.15v-9.114h2.808v-3.37H34.15V5h-3.617v7.324h-2.68v3.37h2.68v13.358zM53.766 29.052v-3.37h-8.851v-3.954h8.851v-9.404H41.298v16.728zM50.191 18.4h-5.276v-2.705h5.276zM68.149 15.694v-3.37h-3.702V8.37h2.808V5H60.83v7.324h-2.681v3.37h2.68v13.358h3.618V15.694zM76.149 5h-3.617v24.052h3.617zM84.149 9.286V5h-3.617v4.286zm0 19.766V12.324h-3.617v16.728zM101 29.052V12.324H88.532V37h3.617v-7.948zm-3.574-3.37h-5.277v-9.988h5.277z"/>
  </g>
  <g fill="#0ff">
    <path d="M4.617 3H1v24.052h3.617zM21.468 27.052V10.324H9v3.37h8.894V16.4H9v10.653zm-3.574-3.37h-5.277v-3.954h5.277zM34.957 27.052v-4.244H32.15v-9.114h2.808v-3.37H32.15V3h-3.617v7.324h-2.68v3.37h2.68v13.358zM51.766 27.052v-3.37h-8.851v-3.954h8.851v-9.404H39.298v16.728zM48.191 16.4h-5.276v-2.705h5.276zM66.149 13.694v-3.37h-3.702V6.37h2.808V3H58.83v7.324h-2.681v3.37h2.68v13.358h3.618V13.694zM74.149 3h-3.617v24.052h3.617zM82.149 7.286V3h-3.617v4.286zm0 19.766V10.324h-3.617v16.728zM99 27.052V10.324H86.532V35h3.617v-7.948zm-3.574-3.37h-5.277v-9.988h5.277z"/>
  </g>
  <g fill="#e900ff">
    <path d="M4.617 1H1v24.052h3.617zM21.468 25.052V8.324H9v3.37h8.894V14.4H9v10.653zm-3.574-3.37h-5.277v-3.954h5.277zM34.957 25.052v-4.244H32.15v-9.114h2.808v-3.37H32.15V1h-3.617v7.324h-2.68v3.37h2.68v13.358zM51.766 25.052v-3.37h-8.851v-3.954h8.851V8.324H39.298v16.728zM48.191 14.4h-5.276v-2.705h5.276zM66.149 11.694v-3.37h-3.702V4.37h2.808V1H58.83v7.324h-2.681v3.37h2.68v13.358h3.618V11.694zM74.149 1h-3.617v24.052h3.617zM82.149 5.286V1h-3.617v4.286zm0 19.766V8.324h-3.617v16.728zM99 25.052V8.324H86.532V33h3.617v-7.948zm-3.574-3.37h-5.277v-9.988h5.277z"/>
  </g>
</svg>