<?xml version="1.0" encoding="UTF-8" standalone="no"?>
<!-- Created with Inkscape (http://www.inkscape.org/) -->

<svg
   xmlns:dc="http://purl.org/dc/elements/1.1/"
   xmlns:cc="http://creativecommons.org/ns#"
   xmlns:rdf="http://www.w3.org/1999/02/22-rdf-syntax-ns#"
   xmlns:svg="http://www.w3.org/2000/svg"
   xmlns="http://www.w3.org/2000/svg"
   xmlns:sodipodi="http://sodipodi.sourceforge.net/DTD/sodipodi-0.dtd"
   xmlns:inkscape="http://www.inkscape.org/namespaces/inkscape"
   width="100"
   height="46"
   viewBox="0 0 100 46"
   version="1.1"
   id="svg8"
   inkscape:version="0.92.4 (5da689c313, 2019-01-14)"
   sodipodi:docname="logo.svg">
  <defs
     id="defs2" />
  <sodipodi:namedview
     id="base"
     pagecolor="#ffffff"
     bordercolor="#666666"
     borderopacity="1.0"
     inkscape:pageopacity="0.0"
     inkscape:pageshadow="2"
     inkscape:zoom="5.7232703"
     inkscape:cx="75.086151"
     inkscape:cy="28.017538"
     inkscape:document-units="px"
     inkscape:current-layer="g2059"
     showgrid="false"
     units="px"
     showborder="true"
     inkscape:showpageshadow="true"
     inkscape:pagecheckerboard="false"
     inkscape:window-width="1920"
     inkscape:window-height="1017"
     inkscape:window-x="-8"
     inkscape:window-y="-8"
     inkscape:window-maximized="1" />
  <metadata
     id="metadata5">
    <rdf:RDF>
      <cc:Work
         rdf:about="">
        <dc:format>image/svg+xml</dc:format>
        <dc:type
           rdf:resource="http://purl.org/dc/dcmitype/StillImage" />
        <dc:title></dc:title>
      </cc:Work>
    </rdf:RDF>
  </metadata>
  <g
     transform="translate(0,-14)"
     inkscape:label="Layer 2 copy"
     id="g2059"
     inkscape:groupmode="layer"
     style="display:inline">
    <g
       transform="matrix(1.0100923,0,0,0.98209711,-0.51910377,-257.54969)"
       id="g2057"
       style="font-style:normal;font-variant:normal;font-weight:normal;font-stretch:normal;font-size:42.66666794px;line-height:1.25;font-family:'French Script MT';-inkscape-font-specification:'French Script MT';letter-spacing:0px;word-spacing:0px;fill:#00feff;fill-opacity:1;stroke:none;stroke-opacity:1"
       aria-label="Lateflip">
      <path
         inkscape:connector-curvature="0"
         id="path2041"
         style="font-style:normal;font-variant:normal;font-weight:normal;font-stretch:normal;font-size:42.66666794px;font-family:'French Script MT';-inkscape-font-specification:'French Script MT';fill:#00feff;fill-opacity:1;stroke:none;stroke-opacity:1"
         d="m 12.483093,306.32015 q 1.708333,-1.72917 1.708333,-3.3125 0,-1.1875 -0.8125,-2.91667 -0.791667,-1.72916 -2.5,-3.75 -1.6875,-2.04166 -2.2708334,-3.45833 -0.5625,-1.4375 -0.5625,-2.85417 0,-3.22916 2.8333334,-5.83333 2.854167,-2.60417 7.145834,-2.60417 3.458333,0 5.5625,1.75 2.125,1.72917 2.125,4.52084 0,2.625 -1.895834,4.58333 -1.875,1.9375 -4.333333,1.9375 -1.958333,0 -3.125,-1.0625 -1.145834,-1.0625 -1.145834,-2.77083 0,-2.58334 2.687501,-3.89584 l 0.291666,0.4375 q -1.416666,1.14584 -1.416666,2.72917 0,1.35417 1.041666,2.39583 1.0625,1.02084 2.5,1.02084 1.5625,0 2.625,-1.20834 1.0625,-1.22916 1.0625,-3.02083 0,-2.54167 -2.145833,-4.39583 -2.145833,-1.875 -5.208333,-1.875 -2.812501,0 -4.625001,1.66666 -1.8125,1.64584 -1.8125,3.875 0,2.64584 2.729167,5.85417 3.125,3.625 3.125,7.08333 0,2.79167 -2.479167,5.5 3.937501,1.66667 6.145834,1.66667 2.5,0 4.729167,-3.20833 l 0.645833,0.52083 q -1.375,2.16667 -3.104167,3.1875 -1.729166,1.02083 -4.458333,1.02083 -2.1875,0 -6.229167,-1.60416 -3.1041667,1.75 -5.8333335,1.75 -1.6875,0 -2.8333334,-0.66667 -1.1458334,-0.66667 -1.1458334,-1.64583 0,-1.10417 1.4375001,-1.89584 1.4375,-0.79166 3.4791667,-0.79166 2.1041668,0 6.0625005,1.27083 z m -2.3125,1.54167 q -3.3541671,-1.66667 -5.0416672,-1.66667 -2.1666667,0 -2.1666667,1.125 0,0.625 0.9791667,1.16667 0.9791667,0.52083 2.2708334,0.52083 1.8333334,0 3.9583338,-1.14583 z" />
      <path
         inkscape:connector-curvature="0"
         id="path2043"
         style="font-style:normal;font-variant:normal;font-weight:normal;font-stretch:normal;font-size:42.66666794px;font-family:'French Script MT';-inkscape-font-specification:'French Script MT';fill:#00feff;fill-opacity:1;stroke:none;stroke-opacity:1"
         d="m 39.483093,306.19515 q -2.375,3.70833 -4.645834,3.70833 -0.854166,0 -1.229166,-0.45833 -0.375,-0.45833 -0.395834,-1.91667 -1.25,1.54167 -2.125,2 -0.854166,0.47917 -1.958333,0.47917 -1.604167,0 -2.5625,-1.10417 -0.9375,-1.10416 -0.9375,-2.95833 v -0.89583 q -0.229167,0.29166 -1.0625,1.5 l -0.6875,-0.47917 q 1.833333,-2.83333 3.854166,-4.4375 2.041667,-1.625 3.562501,-1.625 1.083333,0 2.145833,0.64583 l 1.833333,-0.9375 v 7.08334 q 0,1.125 0.104167,1.35416 0.104167,0.22917 0.5625,0.22917 0.395833,0 1.1875,-0.70833 0.791667,-0.70834 1.729167,-2.02084 z m -6.3125,-0.25 v -4.1875 q -0.833334,-0.85417 -2,-0.85417 -1.25,0 -2.250001,1.16667 -1,1.16667 -1,2.89583 0,1.5 0.708334,2.33334 0.708333,0.8125 1.9375,0.8125 0.958333,0 1.770833,-0.9375 0.833334,-0.95834 0.833334,-1.22917 z" />
      <path
         inkscape:connector-curvature="0"
         id="path2045"
         style="font-style:normal;font-variant:normal;font-weight:normal;font-stretch:normal;font-size:42.66666794px;font-family:'French Script MT';-inkscape-font-specification:'French Script MT';fill:#00feff;fill-opacity:1;stroke:none;stroke-opacity:1"
         d="m 48.243511,306.15348 q -2.354167,3.75 -4.979167,3.75 -1.25,0 -1.5625,-0.58333 -0.3125,-0.60417 -0.3125,-1.91667 v -5.04166 q -1.395834,2.39583 -2.729167,4.1875 l -0.6875,-0.47917 q 0.770833,-1.14583 1.3125,-2 0.541667,-0.85417 1.3125,-2.22917 0.791667,-1.39583 0.791667,-1.5625 v -8.54166 l 2.083333,-2.04167 v 7.9375 l 3.208334,-5.04167 0.8125,0.60417 -4.020834,6.35417 v 6.39583 q 0,1.45833 0.125,1.95833 0.125,0.47917 0.6875,0.47917 1.416667,0 3.375,-2.77083 z" />
      <path
         inkscape:connector-curvature="0"
         id="path2047"
         style="font-style:normal;font-variant:normal;font-weight:normal;font-stretch:normal;font-size:42.66666794px;font-family:'French Script MT';-inkscape-font-specification:'French Script MT';fill:#00feff;fill-opacity:1;stroke:none;stroke-opacity:1"
         d="m 59.399759,306.19515 q -1.229166,2 -2.6875,2.91667 -1.458333,0.89583 -3.833333,0.89583 -1.729167,0 -2.75,-1.02083 -1,-1.04167 -1,-2.91667 0,-0.5 0.08333,-1.0625 -0.75,0.95833 -1.145833,1.54167 l -0.6875,-0.47917 q 2.708333,-3.83333 4.166666,-5.02083 1.458334,-1.20834 3.000001,-1.20834 0.854166,0 1.395833,0.5 0.5625,0.5 0.5625,1.29167 0,2.70833 -4.770834,5.33333 0.645834,1.5 2.687501,1.5 0.979166,0 2.166666,-0.70833 1.208334,-0.70833 2.1875,-2.0625 z m -8.0625,-0.0417 q 3.458334,-1.6875 3.458334,-3.75 0,-0.625 -0.354167,-1.02083 -0.333333,-0.39583 -0.916667,-0.39583 -1.0625,0 -1.791667,0.97916 -0.729166,0.97917 -0.729166,2.35417 0,0.75 0.166666,1.27083 0.166667,0.5 0.166667,0.5625 z" />
      <path
         inkscape:connector-curvature="0"
         id="path2049"
         style="font-style:normal;font-variant:normal;font-weight:normal;font-stretch:normal;font-size:42.66666794px;font-family:'French Script MT';-inkscape-font-specification:'French Script MT';fill:#00feff;fill-opacity:1;stroke:none;stroke-opacity:1"
         d="m 58.587262,305.90348 q 0.395833,-0.625 0.791666,-1.3125 0.395834,-0.70833 1.145834,-2.27083 0.75,-1.5625 0.75,-1.79167 v -9.35416 q 0,-2.4375 1.604166,-4.3125 1.625,-1.875 3.6875,-1.875 2.437501,0 2.437501,2.27083 0,2 -1.125001,4.64583 -1.125,2.64584 -4.520833,8.02084 v 8.70833 q 0.979167,-0.0625 1.770833,-0.58333 0.791667,-0.52084 2.333334,-2.75 l 0.645833,0.52083 q -2.416667,4 -4.75,4 v 7.20833 q 0,2.39584 -1.333333,3.83334 -1.3125,1.45833 -3.270834,1.45833 -2.0625,0 -3.229167,-1.79167 l 1.708334,-1.6875 0.333333,0.29167 q -0.125,0.39583 -0.125,0.60417 0,0.79166 0.5,1.35416 0.5,0.5625 1.291667,0.5625 2.041667,0 2.041667,-4.14583 v -7.6875 q -1.041667,-0.16667 -2.125,-0.9375 0.208333,-0.89583 0.9375,-1.79167 0.583333,0.9375 1.1875,1.16667 v -5.52083 q -0.833334,2.02083 -2.083334,3.72916 z m 4.770833,-8.02083 q 3.9375,-6.3125 3.9375,-10.10417 0,-1.89583 -1.375,-1.89583 -1.020833,0 -1.791667,1.08333 -0.770833,1.0625 -0.770833,2.8125 z" />
      <path
         inkscape:connector-curvature="0"
         id="path2051"
         style="font-style:normal;font-variant:normal;font-weight:normal;font-stretch:normal;font-size:42.66666794px;font-family:'French Script MT';-inkscape-font-specification:'French Script MT';fill:#00feff;fill-opacity:1;stroke:none;stroke-opacity:1"
         d="m 66.962262,306.07015 q 0.395833,-0.5625 0.708333,-1.04167 0.333333,-0.5 0.666667,-1.125 0.333333,-0.64583 0.729166,-1.66666 0.416667,-1.04167 0.416667,-1.375 v -8.0625 q 0,-2.97917 1.875,-5.39584 1.875,-2.41666 3.916667,-2.41666 1.083333,0 1.6875,0.75 0.625,0.75 0.625,2 0,1.66666 -1.375,4.5 -1.375,2.8125 -4.645834,7.89583 v 6.02083 q 0,1.29167 0.104167,1.77084 0.104167,0.45833 0.541667,0.45833 0.9375,0 3.020833,-2.72917 l 0.645833,0.54167 q -2.479166,3.70833 -4.916666,3.70833 -0.729167,0 -1.104167,-0.47916 -0.375,-0.5 -0.375,-2.25 v -3.79167 q -0.645833,1.64583 -1.875,3.20833 z m 4.604166,-7.45833 q 2.791667,-4.58334 3.666667,-6.64584 0.895833,-2.08333 0.895833,-3.60416 0,-2.33334 -1.4375,-2.33334 -1.3125,0 -2.229166,1.47917 -0.895834,1.47917 -0.895834,4.02083 z" />
      <path
         inkscape:connector-curvature="0"
         id="path2053"
         style="font-style:normal;font-variant:normal;font-weight:normal;font-stretch:normal;font-size:42.66666794px;font-family:'French Script MT';-inkscape-font-specification:'French Script MT';fill:#00feff;fill-opacity:1;stroke:none;stroke-opacity:1"
         d="m 80.295595,295.69515 -1.458333,1.85417 -1.479167,-1.85417 1.479167,-1.79167 z m 3.583333,10.5 q -1.1875,1.79167 -2.4375,2.75 -1.25,0.95833 -2.25,0.95833 -1.125,0 -1.416666,-0.60416 -0.291667,-0.60417 -0.291667,-2.125 v -3.79167 q -0.645833,1.64583 -1.875,3.20833 l -0.645833,-0.52083 q 1.9375,-2.6875 2.520833,-5.20833 l 2.083333,-1.10417 v 6.60417 q 0,1.22916 0.104167,1.625 0.125,0.39583 0.583333,0.39583 0.9375,0 3.020834,-2.72917 z" />
      <path
         inkscape:connector-curvature="0"
         id="path2055"
         style="font-style:normal;font-variant:normal;font-weight:normal;font-stretch:normal;font-size:42.66666794px;font-family:'French Script MT';-inkscape-font-specification:'French Script MT';fill:#00feff;fill-opacity:1;stroke:none;stroke-opacity:1"
         d="m 87.733095,301.98682 q 2.125,-2.14584 4.145833,-2.14584 1.604167,0 2.541667,1.125 0.958334,1.125 0.958334,2.97917 0,2.375 -1.5625,4.14583 -1.541667,1.77084 -3.520834,1.77084 -1.4375,0 -2.5625,-0.85417 v 8.02083 q 0,2.47917 -1.375,3.875 -1.375,1.41667 -3.354167,1.41667 -2.083333,0 -3.25,-1.79167 l 1.708333,-1.6875 0.354167,0.29167 q -0.145833,0.375 -0.145833,0.60417 0,0.77083 0.520833,1.33333 0.5,0.58333 1.270834,0.58333 2.0625,0 2.0625,-4.14583 v -14.20833 q -0.75,1.72916 -1.958334,3.29166 l -0.604166,-0.52083 q 1.708333,-2.33333 2.5625,-5.29167 l 2.208333,-1.10416 z m 0,5.95833 q 1.0625,1.02083 2.520833,1.02083 1.354167,0 2.291667,-1.16666 0.958334,-1.16667 0.958334,-2.91667 0,-1.5 -0.833334,-2.39583 -0.8125,-0.89584 -2.083333,-0.89584 -1.645834,0 -2.854167,1.75 z m 10.791667,-1.75 q -2.291667,3.625 -6.083334,4.0625 l -0.1875,-0.47917 q 3.354167,-0.75 5.645834,-4.08333 z" />
    </g>
  </g>
  <g
     inkscape:groupmode="layer"
     id="layer2"
     inkscape:label="Layer 2"
     transform="translate(0,-14)"
     style="display:inline">
    <g
       aria-label="Lateflip"
       style="font-style:normal;font-variant:normal;font-weight:normal;font-stretch:normal;font-size:42.66666794px;line-height:1.25;font-family:'French Script MT';-inkscape-font-specification:'French Script MT';letter-spacing:0px;word-spacing:0px;fill:#ff007f;fill-opacity:1;stroke:none"
       id="text1943-6"
       transform="matrix(1.0100923,0,0,0.98209711,-0.51910377,-259.54969)">
      <path
         d="m 12.483093,306.32015 q 1.708333,-1.72917 1.708333,-3.3125 0,-1.1875 -0.8125,-2.91667 -0.791667,-1.72916 -2.5,-3.75 -1.6875,-2.04166 -2.2708334,-3.45833 -0.5625,-1.4375 -0.5625,-2.85417 0,-3.22916 2.8333334,-5.83333 2.854167,-2.60417 7.145834,-2.60417 3.458333,0 5.5625,1.75 2.125,1.72917 2.125,4.52084 0,2.625 -1.895834,4.58333 -1.875,1.9375 -4.333333,1.9375 -1.958333,0 -3.125,-1.0625 -1.145834,-1.0625 -1.145834,-2.77083 0,-2.58334 2.687501,-3.89584 l 0.291666,0.4375 q -1.416666,1.14584 -1.416666,2.72917 0,1.35417 1.041666,2.39583 1.0625,1.02084 2.5,1.02084 1.5625,0 2.625,-1.20834 1.0625,-1.22916 1.0625,-3.02083 0,-2.54167 -2.145833,-4.39583 -2.145833,-1.875 -5.208333,-1.875 -2.812501,0 -4.625001,1.66666 -1.8125,1.64584 -1.8125,3.875 0,2.64584 2.729167,5.85417 3.125,3.625 3.125,7.08333 0,2.79167 -2.479167,5.5 3.937501,1.66667 6.145834,1.66667 2.5,0 4.729167,-3.20833 l 0.645833,0.52083 q -1.375,2.16667 -3.104167,3.1875 -1.729166,1.02083 -4.458333,1.02083 -2.1875,0 -6.229167,-1.60416 -3.1041667,1.75 -5.8333335,1.75 -1.6875,0 -2.8333334,-0.66667 -1.1458334,-0.66667 -1.1458334,-1.64583 0,-1.10417 1.4375001,-1.89584 1.4375,-0.79166 3.4791667,-0.79166 2.1041668,0 6.0625005,1.27083 z m -2.3125,1.54167 q -3.3541671,-1.66667 -5.0416672,-1.66667 -2.1666667,0 -2.1666667,1.125 0,0.625 0.9791667,1.16667 0.9791667,0.52083 2.2708334,0.52083 1.8333334,0 3.9583338,-1.14583 z"
         style="font-style:normal;font-variant:normal;font-weight:normal;font-stretch:normal;font-size:42.66666794px;font-family:'French Script MT';-inkscape-font-specification:'French Script MT';fill:#ff007f;fill-opacity:1"
         id="path1945-4"
         inkscape:connector-curvature="0" />
      <path
         d="m 39.483093,306.19515 q -2.375,3.70833 -4.645834,3.70833 -0.854166,0 -1.229166,-0.45833 -0.375,-0.45833 -0.395834,-1.91667 -1.25,1.54167 -2.125,2 -0.854166,0.47917 -1.958333,0.47917 -1.604167,0 -2.5625,-1.10417 -0.9375,-1.10416 -0.9375,-2.95833 v -0.89583 q -0.229167,0.29166 -1.0625,1.5 l -0.6875,-0.47917 q 1.833333,-2.83333 3.854166,-4.4375 2.041667,-1.625 3.562501,-1.625 1.083333,0 2.145833,0.64583 l 1.833333,-0.9375 v 7.08334 q 0,1.125 0.104167,1.35416 0.104167,0.22917 0.5625,0.22917 0.395833,0 1.1875,-0.70833 0.791667,-0.70834 1.729167,-2.02084 z m -6.3125,-0.25 v -4.1875 q -0.833334,-0.85417 -2,-0.85417 -1.25,0 -2.250001,1.16667 -1,1.16667 -1,2.89583 0,1.5 0.708334,2.33334 0.708333,0.8125 1.9375,0.8125 0.958333,0 1.770833,-0.9375 0.833334,-0.95834 0.833334,-1.22917 z"
         style="font-style:normal;font-variant:normal;font-weight:normal;font-stretch:normal;font-size:42.66666794px;font-family:'French Script MT';-inkscape-font-specification:'French Script MT';fill:#ff007f;fill-opacity:1"
         id="path1947-8"
         inkscape:connector-curvature="0" />
      <path
         d="m 48.243511,306.15348 q -2.354167,3.75 -4.979167,3.75 -1.25,0 -1.5625,-0.58333 -0.3125,-0.60417 -0.3125,-1.91667 v -5.04166 q -1.395834,2.39583 -2.729167,4.1875 l -0.6875,-0.47917 q 0.770833,-1.14583 1.3125,-2 0.541667,-0.85417 1.3125,-2.22917 0.791667,-1.39583 0.791667,-1.5625 v -8.54166 l 2.083333,-2.04167 v 7.9375 l 3.208334,-5.04167 0.8125,0.60417 -4.020834,6.35417 v 6.39583 q 0,1.45833 0.125,1.95833 0.125,0.47917 0.6875,0.47917 1.416667,0 3.375,-2.77083 z"
         style="font-style:normal;font-variant:normal;font-weight:normal;font-stretch:normal;font-size:42.66666794px;font-family:'French Script MT';-inkscape-font-specification:'French Script MT';fill:#ff007f;fill-opacity:1"
         id="path1949-0"
         inkscape:connector-curvature="0" />
      <path
         d="m 59.399759,306.19515 q -1.229166,2 -2.6875,2.91667 -1.458333,0.89583 -3.833333,0.89583 -1.729167,0 -2.75,-1.02083 -1,-1.04167 -1,-2.91667 0,-0.5 0.08333,-1.0625 -0.75,0.95833 -1.145833,1.54167 l -0.6875,-0.47917 q 2.708333,-3.83333 4.166666,-5.02083 1.458334,-1.20834 3.000001,-1.20834 0.854166,0 1.395833,0.5 0.5625,0.5 0.5625,1.29167 0,2.70833 -4.770834,5.33333 0.645834,1.5 2.687501,1.5 0.979166,0 2.166666,-0.70833 1.208334,-0.70833 2.1875,-2.0625 z m -8.0625,-0.0417 q 3.458334,-1.6875 3.458334,-3.75 0,-0.625 -0.354167,-1.02083 -0.333333,-0.39583 -0.916667,-0.39583 -1.0625,0 -1.791667,0.97916 -0.729166,0.97917 -0.729166,2.35417 0,0.75 0.166666,1.27083 0.166667,0.5 0.166667,0.5625 z"
         style="font-style:normal;font-variant:normal;font-weight:normal;font-stretch:normal;font-size:42.66666794px;font-family:'French Script MT';-inkscape-font-specification:'French Script MT';fill:#ff007f;fill-opacity:1"
         id="path1951-3"
         inkscape:connector-curvature="0" />
      <path
         d="m 58.587262,305.90348 q 0.395833,-0.625 0.791666,-1.3125 0.395834,-0.70833 1.145834,-2.27083 0.75,-1.5625 0.75,-1.79167 v -9.35416 q 0,-2.4375 1.604166,-4.3125 1.625,-1.875 3.6875,-1.875 2.437501,0 2.437501,2.27083 0,2 -1.125001,4.64583 -1.125,2.64584 -4.520833,8.02084 v 8.70833 q 0.979167,-0.0625 1.770833,-0.58333 0.791667,-0.52084 2.333334,-2.75 l 0.645833,0.52083 q -2.416667,4 -4.75,4 v 7.20833 q 0,2.39584 -1.333333,3.83334 -1.3125,1.45833 -3.270834,1.45833 -2.0625,0 -3.229167,-1.79167 l 1.708334,-1.6875 0.333333,0.29167 q -0.125,0.39583 -0.125,0.60417 0,0.79166 0.5,1.35416 0.5,0.5625 1.291667,0.5625 2.041667,0 2.041667,-4.14583 v -7.6875 q -1.041667,-0.16667 -2.125,-0.9375 0.208333,-0.89583 0.9375,-1.79167 0.583333,0.9375 1.1875,1.16667 v -5.52083 q -0.833334,2.02083 -2.083334,3.72916 z m 4.770833,-8.02083 q 3.9375,-6.3125 3.9375,-10.10417 0,-1.89583 -1.375,-1.89583 -1.020833,0 -1.791667,1.08333 -0.770833,1.0625 -0.770833,2.8125 z"
         style="font-style:normal;font-variant:normal;font-weight:normal;font-stretch:normal;font-size:42.66666794px;font-family:'French Script MT';-inkscape-font-specification:'French Script MT';fill:#ff007f;fill-opacity:1"
         id="path1953-5"
         inkscape:connector-curvature="0" />
      <path
         d="m 66.962262,306.07015 q 0.395833,-0.5625 0.708333,-1.04167 0.333333,-0.5 0.666667,-1.125 0.333333,-0.64583 0.729166,-1.66666 0.416667,-1.04167 0.416667,-1.375 v -8.0625 q 0,-2.97917 1.875,-5.39584 1.875,-2.41666 3.916667,-2.41666 1.083333,0 1.6875,0.75 0.625,0.75 0.625,2 0,1.66666 -1.375,4.5 -1.375,2.8125 -4.645834,7.89583 v 6.02083 q 0,1.29167 0.104167,1.77084 0.104167,0.45833 0.541667,0.45833 0.9375,0 3.020833,-2.72917 l 0.645833,0.54167 q -2.479166,3.70833 -4.916666,3.70833 -0.729167,0 -1.104167,-0.47916 -0.375,-0.5 -0.375,-2.25 v -3.79167 q -0.645833,1.64583 -1.875,3.20833 z m 4.604166,-7.45833 q 2.791667,-4.58334 3.666667,-6.64584 0.895833,-2.08333 0.895833,-3.60416 0,-2.33334 -1.4375,-2.33334 -1.3125,0 -2.229166,1.47917 -0.895834,1.47917 -0.895834,4.02083 z"
         style="font-style:normal;font-variant:normal;font-weight:normal;font-stretch:normal;font-size:42.66666794px;font-family:'French Script MT';-inkscape-font-specification:'French Script MT';fill:#ff007f;fill-opacity:1"
         id="path1955-9"
         inkscape:connector-curvature="0" />
      <path
         d="m 80.295595,295.69515 -1.458333,1.85417 -1.479167,-1.85417 1.479167,-1.79167 z m 3.583333,10.5 q -1.1875,1.79167 -2.4375,2.75 -1.25,0.95833 -2.25,0.95833 -1.125,0 -1.416666,-0.60416 -0.291667,-0.60417 -0.291667,-2.125 v -3.79167 q -0.645833,1.64583 -1.875,3.20833 l -0.645833,-0.52083 q 1.9375,-2.6875 2.520833,-5.20833 l 2.083333,-1.10417 v 6.60417 q 0,1.22916 0.104167,1.625 0.125,0.39583 0.583333,0.39583 0.9375,0 3.020834,-2.72917 z"
         style="font-style:normal;font-variant:normal;font-weight:normal;font-stretch:normal;font-size:42.66666794px;font-family:'French Script MT';-inkscape-font-specification:'French Script MT';fill:#ff007f;fill-opacity:1"
         id="path1957-3"
         inkscape:connector-curvature="0" />
      <path
         d="m 87.733095,301.98682 q 2.125,-2.14584 4.145833,-2.14584 1.604167,0 2.541667,1.125 0.958334,1.125 0.958334,2.97917 0,2.375 -1.5625,4.14583 -1.541667,1.77084 -3.520834,1.77084 -1.4375,0 -2.5625,-0.85417 v 8.02083 q 0,2.47917 -1.375,3.875 -1.375,1.41667 -3.354167,1.41667 -2.083333,0 -3.25,-1.79167 l 1.708333,-1.6875 0.354167,0.29167 q -0.145833,0.375 -0.145833,0.60417 0,0.77083 0.520833,1.33333 0.5,0.58333 1.270834,0.58333 2.0625,0 2.0625,-4.14583 v -14.20833 q -0.75,1.72916 -1.958334,3.29166 l -0.604166,-0.52083 q 1.708333,-2.33333 2.5625,-5.29167 l 2.208333,-1.10416 z m 0,5.95833 q 1.0625,1.02083 2.520833,1.02083 1.354167,0 2.291667,-1.16666 0.958334,-1.16667 0.958334,-2.91667 0,-1.5 -0.833334,-2.39583 -0.8125,-0.89584 -2.083333,-0.89584 -1.645834,0 -2.854167,1.75 z m 10.791667,-1.75 q -2.291667,3.625 -6.083334,4.0625 l -0.1875,-0.47917 q 3.354167,-0.75 5.645834,-4.08333 z"
         style="font-style:normal;font-variant:normal;font-weight:normal;font-stretch:normal;font-size:42.66666794px;font-family:'French Script MT';-inkscape-font-specification:'French Script MT';fill:#ff007f;fill-opacity:1"
         id="path1959-4"
         inkscape:connector-curvature="0" />
    </g>
  </g>
  <g
     inkscape:label="Layer 1"
     inkscape:groupmode="layer"
     id="layer1"
     transform="translate(0,-295.12499)"
     style="display:inline">
    <g
       aria-label="Lateflip"
       style="font-style:normal;font-variant:normal;font-weight:normal;font-stretch:normal;font-size:42.66666794px;line-height:1.25;font-family:'French Script MT';-inkscape-font-specification:'French Script MT';letter-spacing:0px;word-spacing:0px;fill:#000000;fill-opacity:1;stroke:none"
       id="text1943"
       transform="matrix(1.0100923,0,0,0.98209711,-0.51910377,19.575302)">
      <path
         d="m 12.483093,306.32015 q 1.708333,-1.72917 1.708333,-3.3125 0,-1.1875 -0.8125,-2.91667 -0.791667,-1.72916 -2.5,-3.75 -1.6875,-2.04166 -2.2708334,-3.45833 -0.5625,-1.4375 -0.5625,-2.85417 0,-3.22916 2.8333334,-5.83333 2.854167,-2.60417 7.145834,-2.60417 3.458333,0 5.5625,1.75 2.125,1.72917 2.125,4.52084 0,2.625 -1.895834,4.58333 -1.875,1.9375 -4.333333,1.9375 -1.958333,0 -3.125,-1.0625 -1.145834,-1.0625 -1.145834,-2.77083 0,-2.58334 2.687501,-3.89584 l 0.291666,0.4375 q -1.416666,1.14584 -1.416666,2.72917 0,1.35417 1.041666,2.39583 1.0625,1.02084 2.5,1.02084 1.5625,0 2.625,-1.20834 1.0625,-1.22916 1.0625,-3.02083 0,-2.54167 -2.145833,-4.39583 -2.145833,-1.875 -5.208333,-1.875 -2.812501,0 -4.625001,1.66666 -1.8125,1.64584 -1.8125,3.875 0,2.64584 2.729167,5.85417 3.125,3.625 3.125,7.08333 0,2.79167 -2.479167,5.5 3.937501,1.66667 6.145834,1.66667 2.5,0 4.729167,-3.20833 l 0.645833,0.52083 q -1.375,2.16667 -3.104167,3.1875 -1.729166,1.02083 -4.458333,1.02083 -2.1875,0 -6.229167,-1.60416 -3.1041667,1.75 -5.8333335,1.75 -1.6875,0 -2.8333334,-0.66667 -1.1458334,-0.66667 -1.1458334,-1.64583 0,-1.10417 1.4375001,-1.89584 1.4375,-0.79166 3.4791667,-0.79166 2.1041668,0 6.0625005,1.27083 z m -2.3125,1.54167 q -3.3541671,-1.66667 -5.0416672,-1.66667 -2.1666667,0 -2.1666667,1.125 0,0.625 0.9791667,1.16667 0.9791667,0.52083 2.2708334,0.52083 1.8333334,0 3.9583338,-1.14583 z"
         style="font-style:normal;font-variant:normal;font-weight:normal;font-stretch:normal;font-size:42.66666794px;font-family:'French Script MT';-inkscape-font-specification:'French Script MT'"
         id="path1945"
         inkscape:connector-curvature="0" />
      <path
         d="m 39.483093,306.19515 q -2.375,3.70833 -4.645834,3.70833 -0.854166,0 -1.229166,-0.45833 -0.375,-0.45833 -0.395834,-1.91667 -1.25,1.54167 -2.125,2 -0.854166,0.47917 -1.958333,0.47917 -1.604167,0 -2.5625,-1.10417 -0.9375,-1.10416 -0.9375,-2.95833 v -0.89583 q -0.229167,0.29166 -1.0625,1.5 l -0.6875,-0.47917 q 1.833333,-2.83333 3.854166,-4.4375 2.041667,-1.625 3.562501,-1.625 1.083333,0 2.145833,0.64583 l 1.833333,-0.9375 v 7.08334 q 0,1.125 0.104167,1.35416 0.104167,0.22917 0.5625,0.22917 0.395833,0 1.1875,-0.70833 0.791667,-0.70834 1.729167,-2.02084 z m -6.3125,-0.25 v -4.1875 q -0.833334,-0.85417 -2,-0.85417 -1.25,0 -2.250001,1.16667 -1,1.16667 -1,2.89583 0,1.5 0.708334,2.33334 0.708333,0.8125 1.9375,0.8125 0.958333,0 1.770833,-0.9375 0.833334,-0.95834 0.833334,-1.22917 z"
         style="font-style:normal;font-variant:normal;font-weight:normal;font-stretch:normal;font-size:42.66666794px;font-family:'French Script MT';-inkscape-font-specification:'French Script MT'"
         id="path1947"
         inkscape:connector-curvature="0" />
      <path
         d="m 48.243511,306.15348 q -2.354167,3.75 -4.979167,3.75 -1.25,0 -1.5625,-0.58333 -0.3125,-0.60417 -0.3125,-1.91667 v -5.04166 q -1.395834,2.39583 -2.729167,4.1875 l -0.6875,-0.47917 q 0.770833,-1.14583 1.3125,-2 0.541667,-0.85417 1.3125,-2.22917 0.791667,-1.39583 0.791667,-1.5625 v -8.54166 l 2.083333,-2.04167 v 7.9375 l 3.208334,-5.04167 0.8125,0.60417 -4.020834,6.35417 v 6.39583 q 0,1.45833 0.125,1.95833 0.125,0.47917 0.6875,0.47917 1.416667,0 3.375,-2.77083 z"
         style="font-style:normal;font-variant:normal;font-weight:normal;font-stretch:normal;font-size:42.66666794px;font-family:'French Script MT';-inkscape-font-specification:'French Script MT'"
         id="path1949"
         inkscape:connector-curvature="0" />
      <path
         d="m 59.399759,306.19515 q -1.229166,2 -2.6875,2.91667 -1.458333,0.89583 -3.833333,0.89583 -1.729167,0 -2.75,-1.02083 -1,-1.04167 -1,-2.91667 0,-0.5 0.08333,-1.0625 -0.75,0.95833 -1.145833,1.54167 l -0.6875,-0.47917 q 2.708333,-3.83333 4.166666,-5.02083 1.458334,-1.20834 3.000001,-1.20834 0.854166,0 1.395833,0.5 0.5625,0.5 0.5625,1.29167 0,2.70833 -4.770834,5.33333 0.645834,1.5 2.687501,1.5 0.979166,0 2.166666,-0.70833 1.208334,-0.70833 2.1875,-2.0625 z m -8.0625,-0.0417 q 3.458334,-1.6875 3.458334,-3.75 0,-0.625 -0.354167,-1.02083 -0.333333,-0.39583 -0.916667,-0.39583 -1.0625,0 -1.791667,0.97916 -0.729166,0.97917 -0.729166,2.35417 0,0.75 0.166666,1.27083 0.166667,0.5 0.166667,0.5625 z"
         style="font-style:normal;font-variant:normal;font-weight:normal;font-stretch:normal;font-size:42.66666794px;font-family:'French Script MT';-inkscape-font-specification:'French Script MT'"
         id="path1951"
         inkscape:connector-curvature="0" />
      <path
         d="m 58.587262,305.90348 q 0.395833,-0.625 0.791666,-1.3125 0.395834,-0.70833 1.145834,-2.27083 0.75,-1.5625 0.75,-1.79167 v -9.35416 q 0,-2.4375 1.604166,-4.3125 1.625,-1.875 3.6875,-1.875 2.437501,0 2.437501,2.27083 0,2 -1.125001,4.64583 -1.125,2.64584 -4.520833,8.02084 v 8.70833 q 0.979167,-0.0625 1.770833,-0.58333 0.791667,-0.52084 2.333334,-2.75 l 0.645833,0.52083 q -2.416667,4 -4.75,4 v 7.20833 q 0,2.39584 -1.333333,3.83334 -1.3125,1.45833 -3.270834,1.45833 -2.0625,0 -3.229167,-1.79167 l 1.708334,-1.6875 0.333333,0.29167 q -0.125,0.39583 -0.125,0.60417 0,0.79166 0.5,1.35416 0.5,0.5625 1.291667,0.5625 2.041667,0 2.041667,-4.14583 v -7.6875 q -1.041667,-0.16667 -2.125,-0.9375 0.208333,-0.89583 0.9375,-1.79167 0.583333,0.9375 1.1875,1.16667 v -5.52083 q -0.833334,2.02083 -2.083334,3.72916 z m 4.770833,-8.02083 q 3.9375,-6.3125 3.9375,-10.10417 0,-1.89583 -1.375,-1.89583 -1.020833,0 -1.791667,1.08333 -0.770833,1.0625 -0.770833,2.8125 z"
         style="font-style:normal;font-variant:normal;font-weight:normal;font-stretch:normal;font-size:42.66666794px;font-family:'French Script MT';-inkscape-font-specification:'French Script MT'"
         id="path1953"
         inkscape:connector-curvature="0" />
      <path
         d="m 66.962262,306.07015 q 0.395833,-0.5625 0.708333,-1.04167 0.333333,-0.5 0.666667,-1.125 0.333333,-0.64583 0.729166,-1.66666 0.416667,-1.04167 0.416667,-1.375 v -8.0625 q 0,-2.97917 1.875,-5.39584 1.875,-2.41666 3.916667,-2.41666 1.083333,0 1.6875,0.75 0.625,0.75 0.625,2 0,1.66666 -1.375,4.5 -1.375,2.8125 -4.645834,7.89583 v 6.02083 q 0,1.29167 0.104167,1.77084 0.104167,0.45833 0.541667,0.45833 0.9375,0 3.020833,-2.72917 l 0.645833,0.54167 q -2.479166,3.70833 -4.916666,3.70833 -0.729167,0 -1.104167,-0.47916 -0.375,-0.5 -0.375,-2.25 v -3.79167 q -0.645833,1.64583 -1.875,3.20833 z m 4.604166,-7.45833 q 2.791667,-4.58334 3.666667,-6.64584 0.895833,-2.08333 0.895833,-3.60416 0,-2.33334 -1.4375,-2.33334 -1.3125,0 -2.229166,1.47917 -0.895834,1.47917 -0.895834,4.02083 z"
         style="font-style:normal;font-variant:normal;font-weight:normal;font-stretch:normal;font-size:42.66666794px;font-family:'French Script MT';-inkscape-font-specification:'French Script MT'"
         id="path1955"
         inkscape:connector-curvature="0" />
      <path
         d="m 80.295595,295.69515 -1.458333,1.85417 -1.479167,-1.85417 1.479167,-1.79167 z m 3.583333,10.5 q -1.1875,1.79167 -2.4375,2.75 -1.25,0.95833 -2.25,0.95833 -1.125,0 -1.416666,-0.60416 -0.291667,-0.60417 -0.291667,-2.125 v -3.79167 q -0.645833,1.64583 -1.875,3.20833 l -0.645833,-0.52083 q 1.9375,-2.6875 2.520833,-5.20833 l 2.083333,-1.10417 v 6.60417 q 0,1.22916 0.104167,1.625 0.125,0.39583 0.583333,0.39583 0.9375,0 3.020834,-2.72917 z"
         style="font-style:normal;font-variant:normal;font-weight:normal;font-stretch:normal;font-size:42.66666794px;font-family:'French Script MT';-inkscape-font-specification:'French Script MT'"
         id="path1957"
         inkscape:connector-curvature="0" />
      <path
         d="m 87.733095,301.98682 q 2.125,-2.14584 4.145833,-2.14584 1.604167,0 2.541667,1.125 0.958334,1.125 0.958334,2.97917 0,2.375 -1.5625,4.14583 -1.541667,1.77084 -3.520834,1.77084 -1.4375,0 -2.5625,-0.85417 v 8.02083 q 0,2.47917 -1.375,3.875 -1.375,1.41667 -3.354167,1.41667 -2.083333,0 -3.25,-1.79167 l 1.708333,-1.6875 0.354167,0.29167 q -0.145833,0.375 -0.145833,0.60417 0,0.77083 0.520833,1.33333 0.5,0.58333 1.270834,0.58333 2.0625,0 2.0625,-4.14583 v -14.20833 q -0.75,1.72916 -1.958334,3.29166 l -0.604166,-0.52083 q 1.708333,-2.33333 2.5625,-5.29167 l 2.208333,-1.10416 z m 0,5.95833 q 1.0625,1.02083 2.520833,1.02083 1.354167,0 2.291667,-1.16666 0.958334,-1.16667 0.958334,-2.91667 0,-1.5 -0.833334,-2.39583 -0.8125,-0.89584 -2.083333,-0.89584 -1.645834,0 -2.854167,1.75 z m 10.791667,-1.75 q -2.291667,3.625 -6.083334,4.0625 l -0.1875,-0.47917 q 3.354167,-0.75 5.645834,-4.08333 z"
         style="font-style:normal;font-variant:normal;font-weight:normal;font-stretch:normal;font-size:42.66666794px;font-family:'French Script MT';-inkscape-font-specification:'French Script MT'"
         id="path1959"
         inkscape:connector-curvature="0" />
    </g>
  </g>
</svg>
