<svg xmlns="http://www.w3.org/2000/svg" viewBox="0 0 100 200"><path d="M0 127.017c.125-56.928 6.567-74.76 19.698-89.904C44.354 8.676 92.042 34.61 73.236 77.266 52.031 125.364 100 126.336 100 200c0 0-78.83-.016-100 0 .331-28.863 0-72.983 0-72.983z" fill="#3d924f"/><path d="M63.842 39.016c-7.282-.018-11.02 1.47-15.645 9.283-1.594-2.54 1.81-7.852 4.526-9.558 2.717-1.706 9.524-2.265 11.119.275z" fill="#fff"/><path d="M71.468 35.093L94.954 18.93 80.812 40.143 93.44 33.83 80.055 55.548c-1.491-10.53-4.774-16.846-8.587-20.455z" fill="#d6992e"/><path d="M40.659 23.728C25.719-7.752 17.15 12.054 4.293 15.395c5.877 2.963 15.08 1.005 13.583 7.183-5.156-2.796-7.905-1.473-16.36 5.444 10.168-.883 9.235 2.545 10.23 6.043-7.573-.827-24.081 10.392-30.912 19.446 12.455-1.304 18.16 9.871 21.439 19.314 5.525-37.422 26.605-48.99 38.386-49.097zM80.307 63.124c12.157 12.958 11.401 25.314 5.992 40.15-8.547-20.97-14.369-13.726-5.992-40.15z" fill="#a42433"/></svg>