<svg xmlns="http://www.w3.org/2000/svg" width="1440" height="600"><path d="M347.955 20.275A88.893 126.27 0 00330.38 23.8a88.893 126.27 0 00-66.602 142.781 88.893 126.27 0 0094.868 105.727 88.893 126.27 0 0012.69-2.93 118.188 155.563 0 00103.8 61.424 118.188 155.563 0 00108.734-155.065l-6.014-48.988A118.188 155.563 0 00437.557 24.641a118.188 155.563 0 00-34.362 19.23 88.893 126.27 0 00-55.24-23.596zm889.652 30.354a121.218 186.878 0 00-23.964 5.217 121.218 186.878 0 00-81.653 105.004 100.005 123.239 0 00-37.549 2.263 100.005 123.239 0 00-12.3 4.926l-2.069-16.334a94.954 121.218 0 00-112.718-79.562 94.954 121.218 0 00-70.583 95.193 76.772 132.33 0 00-60.45-18.104 76.772 132.33 0 00-7.811 4.163l-.873-7.583a92.934 130.31 0 00-110.32-85.53 92.934 130.31 0 00-69.63 147.349 92.934 130.31 0 0099.18 109.11 92.934 130.31 0 0032.592-12.427 76.772 132.33 0 0081.271 105.354 76.772 132.33 0 0070.424-124.797 94.954 121.218 0 0066.393 25.836 94.954 121.218 0 0022.353-5.959 100.005 123.239 0 00106.34 100.908 100.005 123.239 0 0044.371-17.969 121.218 186.878 0 0081.574 35.948 121.218 186.878 0 0035.102-12.705 119.198 167.685 0 0094.037 49.13 119.198 167.685 0 00109.66-167.146l-6.064-52.805a119.198 167.685 0 00-141.498-110.064 119.198 167.685 0 00-1.445.598 121.218 186.878 0 00-104.37-80.014zM34.164 113.197a79.802 112.127 0 00-15.777 3.131 79.802 112.127 0 00-59.791 126.79A79.802 112.127 0 0043.76 337a79.802 112.127 0 0035.388-16.332 85.863 114.147 0 0076.213 46.63 85.863 114.147 0 0078.994-113.78l-4.369-35.946a85.863 114.147 0 00-101.925-74.924 85.863 114.147 0 00-26.752 15.674 79.802 112.127 0 00-67.145-45.125z" fill="#957ba9"/><path d="M202.03 310.086a82.833 130.31 0 01-76.205 129.892 82.833 130.31 0 01-88.4-109.108 82.833 130.31 0 0162.062-147.35 82.833 130.31 0 0198.33 85.531M826.305 272.71A100.005 149.503 0 01734.3 421.735a100.005 149.503 0 01-106.725-125.179 100.005 149.503 0 0174.927-169.053 100.005 149.503 0 01118.715 98.13" fill="#ccd1dd"/><path d="M959.645 246.447a96.975 143.442 0 01-89.216 142.981 96.975 143.442 0 01-103.492-120.103 96.975 143.442 0 0172.657-162.2 96.975 143.442 0 01115.117 94.151M1210.163 251.497a102.025 138.39 0 01-93.863 137.948 102.025 138.39 0 01-108.882-115.875 102.025 138.39 0 0176.441-156.488 102.025 138.39 0 01121.113 90.836M1410.173 244.426a76.772 153.543 0 01-70.63 153.051 76.772 153.543 0 01-81.93-128.562 76.772 153.543 0 0157.52-173.621 76.772 153.543 0 0191.134 100.781M705.087 211.091a108.086 180.817 0 01-99.44 180.238 108.086 180.817 0 01-115.35-151.399A108.086 180.817 0 01571.28 35.468a108.086 180.817 0 01128.307 118.683" fill="#ccd1dd"/><path d="M565.685 224.223a102.025 216.173 0 01-93.863 215.48 102.025 216.173 0 01-108.881-181.002 102.025 216.173 0 0176.44-244.44A102.025 216.173 0 01560.496 156.15" fill="#ccd1dd"/><path d="M430.325 192.909a77.782 126.27 0 01-71.559 125.864 77.782 126.27 0 01-83.009-105.725 77.782 126.27 0 0158.277-142.781 77.782 126.27 0 0192.334 82.879" fill="#ccd1dd"/><path d="M1448.559 272.361a84.853 159.604 0 00-93.198-73.857 84.853 159.604 0 00-25.306 20.516 114.147 251.528 0 00-99.578-50.202 114.147 251.528 0 00-57.415 75.453 151.523 169.706 0 00-99.97-11.132 151.523 169.706 0 00-29.356 11.877 90.914 131.32 0 00-101.685-65.508 90.914 131.32 0 00-54.356 55.746 119.198 70.71 0 00-101.877-13.041 119.198 70.71 0 00-57.92 19.978l-2.304-20.377a113.137 161.624 0 00-111.936-110.597 113.137 161.624 0 00-22.367 4.512 113.137 161.624 0 00-84.156 127.36 105.056 103.036 0 00-119.992-56.312 105.056 103.036 0 00-41.079 20.139 113.137 181.827 0 00-102.168-95.754 113.137 181.827 0 00-24.341 5.147 113.137 181.827 0 00-81.37 124.755 119.198 153.543 0 00-75.636-8.39 119.198 153.543 0 00-48.658 32.152 84.853 159.604 0 00-15.91-33.248v378.524h1450.578v-337.74z" fill="#2b4e59"/><path d="M373.756 183.817c-5.745 57.124-20.788 108.273 36.366 157.584 79.488 12.719 152.23 7.899 222.233-4.04 36.897-51.501 62.98-141.912 40.977-181.93-44.343-80.652-86.78-48.23-117.595-74.839-30.813-26.607-1.46-68.846-27.135-67.583-72.172 3.55-13.328 49.793-57.339 76.53-44.295 26.909-91.2 31.57-97.507 94.278z" fill="#af5400"/></svg>