<?xml version="1.0" encoding="UTF-8" standalone="no"?>
<!-- Created with Inkscape (http://www.inkscape.org/) -->

<svg
   xmlns:dc="http://purl.org/dc/elements/1.1/"
   xmlns:cc="http://creativecommons.org/ns#"
   xmlns:rdf="http://www.w3.org/1999/02/22-rdf-syntax-ns#"
   xmlns:svg="http://www.w3.org/2000/svg"
   xmlns="http://www.w3.org/2000/svg"
   xmlns:sodipodi="http://sodipodi.sourceforge.net/DTD/sodipodi-0.dtd"
   xmlns:inkscape="http://www.inkscape.org/namespaces/inkscape"
   width="1440"
   height="600"
   viewBox="0 0 1440 600"
   version="1.1"
   id="svg8"
   sodipodi:docname="drawing.svg"
   inkscape:version="0.92.4 (5da689c313, 2019-01-14)">
  <defs
     id="defs2" />
  <sodipodi:namedview
     id="base"
     pagecolor="#ffffff"
     bordercolor="#666666"
     borderopacity="1.0"
     inkscape:pageopacity="0.0"
     inkscape:pageshadow="2"
     inkscape:zoom="0.35"
     inkscape:cx="96.345647"
     inkscape:cy="327.16664"
     inkscape:document-units="px"
     inkscape:current-layer="layer1"
     showgrid="false"
     units="px"
     showguides="true"
     inkscape:guide-bbox="true"
     inkscape:window-width="1920"
     inkscape:window-height="1017"
     inkscape:window-x="-8"
     inkscape:window-y="-8"
     inkscape:window-maximized="1"
     inkscape:snap-nodes="false" />
  <metadata
     id="metadata5">
    <rdf:RDF>
      <cc:Work
         rdf:about="">
        <dc:format>image/svg+xml</dc:format>
        <dc:type
           rdf:resource="http://purl.org/dc/dcmitype/StillImage" />
        <dc:title></dc:title>
      </cc:Work>
    </rdf:RDF>
  </metadata>
  <g
     inkscape:label="Layer 1"
     inkscape:groupmode="layer"
     id="layer1"
     transform="translate(0,-138.24998)"
     style="opacity:1">
    <path
       style="opacity:1;fill:#957ba9;fill-opacity:1;stroke:none;stroke-opacity:1"
       d="M 347.95508 20.275391 A 88.893425 126.26907 0 0 0 330.37891 23.798828 A 88.893425 126.26907 0 0 0 263.77734 166.58008 A 88.893425 126.26907 0 0 0 358.64453 272.30664 A 88.893425 126.26907 0 0 0 371.33594 269.37695 A 118.18785 155.56349 0 0 0 475.13477 330.80078 A 118.18785 155.56349 0 0 0 583.86914 175.73633 L 577.85547 126.74805 A 118.18785 155.56349 0 0 0 437.55664 24.640625 A 118.18785 155.56349 0 0 0 403.19531 43.871094 A 88.893425 126.26907 0 0 0 347.95508 20.275391 z M 1237.6074 50.628906 A 121.21831 186.87822 0 0 0 1213.6426 55.845703 A 121.21831 186.87822 0 0 0 1131.9902 160.84961 A 100.0051 123.23861 0 0 0 1094.4414 163.11328 A 100.0051 123.23861 0 0 0 1082.1406 168.03906 L 1080.0723 151.70508 A 94.954338 121.21831 0 0 0 967.35352 72.142578 A 94.954338 121.21831 0 0 0 896.77148 167.33594 A 76.771591 132.32999 0 0 0 836.32031 149.23242 A 76.771591 132.32999 0 0 0 828.50977 153.39453 L 827.63672 145.8125 A 92.934036 130.30968 0 0 0 717.31641 60.28125 A 92.934036 130.30968 0 0 0 647.6875 207.63086 A 92.934036 130.30968 0 0 0 746.86719 316.74023 A 92.934036 130.30968 0 0 0 779.45898 304.31445 A 76.771591 132.32999 0 0 0 860.73047 409.66797 A 76.771591 132.32999 0 0 0 931.1543 284.87109 A 94.954338 121.21831 0 0 0 997.54688 310.70703 A 94.954338 121.21831 0 0 0 1019.9004 304.74805 A 100.0051 123.23861 0 0 0 1126.2402 405.65625 A 100.0051 123.23861 0 0 0 1170.6113 387.6875 A 121.21831 186.87822 0 0 0 1252.1855 423.63477 A 121.21831 186.87822 0 0 0 1287.2871 410.92969 A 119.198 167.68532 0 0 0 1381.3242 460.06055 A 119.198 167.68532 0 0 0 1490.9844 292.91406 L 1484.9199 240.10938 A 119.198 167.68532 0 0 0 1343.4219 130.04492 A 119.198 167.68532 0 0 0 1341.9766 130.64258 A 121.21831 186.87822 0 0 0 1237.6074 50.628906 z M 34.164062 113.19727 A 79.802048 112.12693 0 0 0 18.386719 116.32812 A 79.802048 112.12693 0 0 0 -41.404297 243.11719 A 79.802048 112.12693 0 0 0 43.759766 337 A 79.802048 112.12693 0 0 0 79.148438 320.66797 A 85.862968 114.14724 0 0 0 155.36133 367.29883 A 85.862968 114.14724 0 0 0 234.35547 253.51758 L 229.98633 217.57227 A 85.862968 114.14724 0 0 0 128.06055 142.64844 A 85.862968 114.14724 0 0 0 101.30859 158.32227 A 79.802048 112.12693 0 0 0 34.164062 113.19727 z "
       transform="translate(0,138.24998)"
       id="path895" />
    <path
       style="opacity:1;fill:#ccd1dd;fill-opacity:1;stroke:none;stroke-width:1.05266714;stroke-opacity:1"
       id="path960"
       sodipodi:type="arc"
       sodipodi:cx="119.19801"
       sodipodi:cy="448.33621"
       sodipodi:rx="82.832512"
       sodipodi:ry="130.30968"
       sodipodi:start="0"
       sodipodi:end="5.9628301"
       sodipodi:open="true"
       d="M 202.03053,448.33621 A 82.832512,130.30968 0 0 1 125.82488,578.2282 82.832512,130.30968 0 0 1 37.425843,469.11976 82.832512,130.30968 0 0 1 99.487074,321.76973 82.832512,130.30968 0 0 1 197.81631,407.30121" />
    <path
       style="opacity:1;fill:#ccd1dd;fill-opacity:1;stroke:none;stroke-opacity:1"
       id="path962"
       sodipodi:type="arc"
       sodipodi:cx="726.29968"
       sodipodi:cy="410.96054"
       sodipodi:rx="100.0051"
       sodipodi:ry="149.50258"
       sodipodi:start="0"
       sodipodi:end="5.9628301"
       sodipodi:open="true"
       d="M 826.30478,410.96054 A 100.0051,149.50258 0 0 1 734.30041,559.9839 100.0051,149.50258 0 0 1 627.57475,434.80524 100.0051,149.50258 0 0 1 702.50233,265.75248 100.0051,149.50258 0 0 1 821.21688,363.88162" />
    <path
       style="opacity:1;fill:#ccd1dd;fill-opacity:1;stroke:none;stroke-opacity:1"
       id="path968"
       sodipodi:type="arc"
       sodipodi:cx="862.67029"
       sodipodi:cy="384.69659"
       sodipodi:rx="96.974648"
       sodipodi:ry="143.44167"
       sodipodi:start="0"
       sodipodi:end="5.9628301"
       sodipodi:open="true"
       d="M 959.64494,384.69659 A 96.974648,143.44167 0 0 1 870.42857,527.67847 96.974648,143.44167 0 0 1 766.93702,407.57461 96.974648,143.44167 0 0 1 839.59407,245.37535 96.974648,143.44167 0 0 1 954.71122,339.52628" />
    <path
       style="opacity:1;fill:#ccd1dd;fill-opacity:1;stroke:none;stroke-opacity:1"
       id="path970"
       sodipodi:type="arc"
       sodipodi:cx="1108.1373"
       sodipodi:cy="389.74734"
       sodipodi:rx="102.02541"
       sodipodi:ry="138.3909"
       sodipodi:start="0"
       sodipodi:end="5.9628301"
       sodipodi:open="true"
       d="m 1210.1627,389.74734 a 102.02541,138.3909 0 0 1 -93.863,137.94731 102.02541,138.3909 0 0 1 -108.8818,-115.87485 102.02541,138.3909 0 0 1 76.4413,-156.48802 102.02541,138.3909 0 0 1 121.1129,90.83576" />
    <path
       style="opacity:1;fill:#ccd1dd;fill-opacity:1;stroke:none;stroke-opacity:1"
       id="path974"
       sodipodi:type="arc"
       sodipodi:cx="1333.4014"
       sodipodi:cy="382.67627"
       sodipodi:rx="76.771591"
       sodipodi:ry="153.54318"
       sodipodi:start="0"
       sodipodi:end="5.9628301"
       sodipodi:open="true"
       d="m 1410.173,382.67627 a 76.771591,153.54318 0 0 1 -70.6297,153.05102 76.771591,153.54318 0 0 1 -81.9308,-128.56187 76.771591,153.54318 0 0 1 57.5202,-173.62175 76.771591,153.54318 0 0 1 91.1344,100.78128" />
    <path
       style="opacity:1;fill:#ccd1dd;fill-opacity:1;stroke:none;stroke-opacity:1"
       id="path990"
       sodipodi:type="arc"
       sodipodi:cx="597.00018"
       sodipodi:cy="349.34125"
       sodipodi:rx="108.08632"
       sodipodi:ry="180.81731"
       sodipodi:start="0"
       sodipodi:end="5.9628301"
       sodipodi:open="true"
       d="M 705.0865,349.34125 A 108.08632,180.81731 0 0 1 605.64744,529.57896 108.08632,180.81731 0 0 1 490.29748,378.18044 108.08632,180.81731 0 0 1 571.27981,173.71799 108.08632,180.81731 0 0 1 699.58746,292.40121" />
    <path
       style="opacity:1;fill:#ccd1dd;fill-opacity:1;stroke:none;stroke-opacity:1"
       id="path994"
       sodipodi:type="arc"
       sodipodi:cx="463.66"
       sodipodi:cy="362.47324"
       sodipodi:rx="102.02541"
       sodipodi:ry="216.17264"
       sodipodi:start="0"
       sodipodi:end="5.9628301"
       sodipodi:open="true"
       d="M 565.68542,362.47324 A 102.02541,216.17264 0 0 1 471.82236,577.95296 102.02541,216.17264 0 0 1 362.94062,396.95138 102.02541,216.17264 0 0 1 439.38189,152.51024 102.02541,216.17264 0 0 1 560.49473,294.39967" />
    <path
       style="opacity:1;fill:#ccd1dd;fill-opacity:1;stroke:none;stroke-opacity:1"
       id="path986"
       sodipodi:type="arc"
       sodipodi:cx="352.54324"
       sodipodi:cy="331.15851"
       sodipodi:rx="77.781746"
       sodipodi:ry="126.26907"
       sodipodi:start="0"
       sodipodi:end="5.9628301"
       sodipodi:open="true"
       d="m 430.32499,331.15851 a 77.781746,126.26907 0 0 1 -71.55896,125.86433 77.781746,126.26907 0 0 1 -83.00885,-105.72523 77.781746,126.26907 0 0 1 58.27701,-142.78105 77.781746,126.26907 0 0 1 92.33355,82.87935" />
    <path
       style="opacity:1;fill:#2b4e59;fill-opacity:1;stroke:none;stroke-width:1.41909707;stroke-opacity:1"
       d="M 1448.5586 272.36133 A 84.852814 159.6041 0 0 0 1355.3613 198.50391 A 84.852814 159.6041 0 0 0 1330.0547 219.01953 A 114.14724 251.52798 0 0 0 1230.4766 168.81836 A 114.14724 251.52798 0 0 0 1173.0625 244.27148 A 151.52289 169.70563 0 0 0 1073.0918 233.13867 A 151.52289 169.70563 0 0 0 1043.7363 245.01562 A 90.913727 131.31982 0 0 0 942.05078 179.50781 A 90.913727 131.31982 0 0 0 887.69531 235.25391 A 119.198 70.710678 0 0 0 785.81836 222.21289 A 119.198 70.710678 0 0 0 727.89844 242.19141 L 725.59375 221.81445 A 113.13708 161.6244 0 0 0 613.6582 111.2168 A 113.13708 161.6244 0 0 0 591.29102 115.72852 A 113.13708 161.6244 0 0 0 507.13477 243.08984 A 105.05586 103.03556 0 0 0 387.14258 186.77734 A 105.05586 103.03556 0 0 0 346.06445 206.91602 A 113.13708 181.82745 0 0 0 243.89648 111.16211 A 113.13708 181.82745 0 0 0 219.55469 116.30859 A 113.13708 181.82745 0 0 0 138.18555 241.06445 A 119.198 153.54318 0 0 0 62.548828 232.67383 A 119.198 153.54318 0 0 0 13.890625 264.82617 A 84.852814 159.6041 0 0 0 -2.0195312 231.57812 L -2.0195312 610.10156 L 1448.5586 610.10156 L 1448.5586 272.36133 z "
       id="path958"
       transform="translate(0,138.24998)" />
    <path
       style="opacity:1;fill:#af5400;fill-opacity:1;stroke:none;stroke-opacity:1"
       d="m 373.75644,322.06713 c -5.7456,57.12381 -20.78859,108.27246 36.36549,157.58381 79.48766,12.71863 152.22966,7.89855 222.23356,-4.0406 36.8961,-51.50077 62.97904,-141.91101 40.97681,-181.92901 -44.34339,-80.65243 -86.78121,-48.23127 -117.59485,-74.839 -30.81363,-26.60773 -1.45995,-68.84655 -27.13541,-67.58379 -72.17179,3.54954 -13.32765,49.79351 -57.33869,76.53008 -44.29506,26.90911 -91.19958,31.56989 -97.50691,94.27851 z"
       id="path1002"
       inkscape:connector-curvature="0"
       sodipodi:nodetypes="sccsssss" />
  </g>
</svg>
